<?xml version="1.0" encoding="UTF-8" standalone="no"?>
<svg xmlns="http://www.w3.org/2000/svg" fill="#0179a8" width="400" height="200" viewBox="0 0 400 200">
    <path d="m 262,86 q 0,22 -8.25,39 -8.25,17 -23,27 -14.75,10 -33.25,9.75 -18.5,0 -33,-9.75 -14.5,-9.75 -23,-26.75 -8.5,-17 -8.5,-39.25 0,-22 8.25,-39 8.25,-17 23,-27 Q 179,10 197.5,10 q 18.5,0 33,9.75 14.5,9.75 23,27 8.5,17.25 8.5,39.25 z m -33.75,0 q 0,-13.5 -3.75,-23.5 -3.75,-10 -11,-16 -7.25,-6 -16,-5.75 -9.25,0 -16.25,5.75 -7,5.75 -10.75,15.75 -3.75,10 -4,23.75 0,13.5 3.75,23.5 3.75,10 11,15.75 7.25,5.75 16.25,5.75 9,0 15.75,-5.75 6.75,-5.75 11,-15.75 4.25,-10 4,-23.5 z"/>
    <path d="m 397,86 q 0,22 -8.25,39 -8.25,17 -23,27 -14.75,10 -33.25,9.75 -18.5,0 -33,-9.75 -14.5,-9.75 -23,-26.75 -8.5,-17 -8.5,-39.25 0,-22 8.25,-39 8.25,-17 23,-27 14.75,-10 33.25,-10 18.5,0 33,9.75 14.5,9.75 23,27 8.5,17.25 8.5,39.25 z m -33.75,0 q 0,-13.5 -3.75,-23.5 -3.75,-10 -11,-16 -7.25,-6 -16,-5.75 -9.25,0 -16.25,5.75 -7,5.75 -10.75,15.75 -3.75,10 -4,23.75 0,13.5 3.75,23.5 3.75,10 11,15.75 7.25,5.75 16.25,5.75 9,0 15.75,-5.75 6.75,-5.75 11,-15.75 4.25,-10 4,-23.5 z"/>
    <path d="M 84.75,187.25 V 150 h -73 v -29.75 l 83.75,-107.5 h 22.75 V 120 h 22 v 30 h -22 v 37.25 z m -39.5,-67.25 h 43.25 V 63.5 Z"/>
</svg>
