<?xml version="1.0" encoding="UTF-8" standalone="no"?>
<svg xmlns="http://www.w3.org/2000/svg" fill="#0179a8" width="400" height="200" viewBox="0 0 400 200">
 <path d="m 267.5,85.62 q 0,22 -8.25,39 -8.25,17 -23,27 -14.75,10 -33.25,9.75 -18.5,0 -33,-9.75 -14.5,-9.75 -23,-26.75 -8.5,-17 -8.5,-39.25 0,-22 8.25,-39 8.25,-17 23,-27 14.75,-10 33.25,-10 18.5,0 33,9.75 14.5,9.75 23,27 8.5,17.25 8.5,39.25 z m -33.75,0 q 0,-13.5 -3.75,-23.5 -3.75,-10 -11,-16 -7.25,-6 -16,-5.75 -9.25,0 -16.25,5.75 -7,5.75 -10.75,15.75 -3.75,10 -4,23.75 0,13.5 3.75,23.5 3.75,10 11,15.75 7.25,5.75 16.25,5.75 9,0 15.75,-5.75 6.75,-5.75 11,-15.75 4.25,-10 4,-23.5 z"/>
 <path d="m 361.75,94.63 q 10.5,1.75 18.25,7.75 7.75,6 12,15.75 4.25,9.75 4.5,21 0,15.5 -8,27 -8,11.5 -22.5,17.75 -14.5,6.25 -34.5,6.5 -19,0 -33.5,-6 -14.5,-6 -24.5,-18 l 19,-23.75 q 6.5,8 15.5,12.5 9,4.5 22.5,4.75 15.25,0 23.25,-6 8,-6 8,-18.5 0,-13 -9.25,-20 -9.25,-7 -28,-7 h -7 V 83.38 h 7.75 q 15.25,0 23.75,-7 8.5,-7 8.75,-17.5 0,-6.75 -3.25,-11.25 -3.25,-4.5 -8.75,-6.75 -5.5,-2.25 -13.25,-2.25 -11.25,0 -20.5,5.25 -9.25,5.25 -15,14.75 l -21,-23.5 q 5.25,-7.75 14.25,-13.25 9,-5.5 21,-9 12,-3.5 25,-3.25 17,0 29.75,5.5 12.75,5.5 20.25,15.5 7.5,10 7.25,23.25 0,9.75 -4,18.5 -4,8.75 -11,14.5 -7,5.75 -16.75,7.75 z"/>
 <path d="m 76.5,184.12 v -37.25 h -73 v -29.75 l 83.75,-107.5 h 22.75 V 116.87 h 22 v 30 h -22 v 37.25 z m -39.5,-67.25 h 43.25 V 60.37 Z"/>
</svg>
