<svg xmlns="http://www.w3.org/2000/svg" fill="#0179a8" width="400" height="200" viewBox="0 0 400 200" >
    <path d="m 264.75,88.75 q 0,22 -8.25,39 -8.25,17 -23,27 -14.75,10 -33.25,9.75 -18.5,0 -33,-9.75 -14.5,-9.75 -23,-26.75 -8.5,-17 -8.5,-39.25 0,-22 8.25,-39 8.25,-17 23,-27 14.75,-10 33.25,-10 18.5,0 33,9.75 14.5,9.75 23,27 8.5,17.25 8.5,39.25 z m -33.75,0 q 0,-13.5 -3.75,-23.5 -3.75,-10 -11,-16 -7.25,-6 -16,-5.75 -9.25,0 -16.25,5.75 -7,5.75 -10.75,15.75 -3.75,10 -4,23.75 0,13.5 3.75,23.5 3.75,10 11,15.75 7.25,5.75 16.25,5.75 9,0 15.75,-5.75 6.75,-5.75 11,-15.75 4.25,-10 4,-23.5 z" />
    <path d="m 73.75,187.25 v -37.25 h -73 v -29.75 L 84.5,12.75 h 22.75 v 107.25 h 22 v 30 h -22 v 37.25 z m -39.5,-67.25 H 77.5 V 63.5 Z" />
    <path d="m 328.125,190 q -19.25,0 -34.75,-8.25 -15.5,-8.25 -23.5,-22.5 l 19.25,-20 q 7,9.75 17.5,15.5 10.5,5.75 21.75,5.75 9,0 15.75,-3.75 6.75,-3.75 11,-10.5 4.25,-6.75 4,-15.5 0,-8.75 -3.75,-15.25 -3.75,-6.5 -10.25,-10 -6.5,-3.5 -14.75,-3.75 -8.25,0 -15.25,3.5 -7,3.5 -11.5,10.5 h -29.25 l 20.5,-105.75 h 87.5 V 40.5 h -63.25 l -7.25,39.75 q 3.25,-3 9,-5 5.75,-2 14.25,-2.25 16.75,0 30,7.25 13.25,7.25 20.75,20 7.5,12.75 7.5,29.75 0,17.75 -8.5,31.25 -8.5,13.5 -23.25,21.25 -14.75,7.75 -33.5,7.5 z"/>
</svg>
