<?xml version="1.0" encoding="UTF-8" standalone="no"?>
<svg xmlns="http://www.w3.org/2000/svg" fill="#0179a8" width="400" height="200" viewBox="0 0 400 200">
 <path d="m 76.5,184.12 v -37.25 h -73 v -29.75 l 83.75,-107.5 h 22.75 V 116.87 h 22 v 30 h -22 v 37.25 z m -39.5,-67.25 h 43.25 V 60.37 Z"/>

 <path d="m 260.5,125.25 v 30.25 h -101.5 v -30.25 h 35.5 v -75.75 q -2.25,3 -7,6 -4.75,3 -10.75,6 -6,3 -12,4.5 -6,1.5 -10.75,1.75 V 36.5 q 4.5,0 10.75,-2.75 6.25,-2.75 12.75,-7 6.5,-4.25 11,-7.75 4.5,-3.5 6,-6.25 h 34.25 v 112.5 z"/>

 <path d="m 361.75,94.63 q 10.5,1.75 18.25,7.75 7.75,6 12,15.75 4.25,9.75 4.5,21 0,15.5 -8,27 -8,11.5 -22.5,17.75 -14.5,6.25 -34.5,6.5 -19,0 -33.5,-6 -14.5,-6 -24.5,-18 l 19,-23.75 q 6.5,8 15.5,12.5 9,4.5 22.5,4.75 15.25,0 23.25,-6 8,-6 8,-18.5 0,-13 -9.25,-20 -9.25,-7 -28,-7 h -7 V 83.38 h 7.75 q 15.25,0 23.75,-7 8.5,-7 8.75,-17.5 0,-6.75 -3.25,-11.25 -3.25,-4.5 -8.75,-6.75 -5.5,-2.25 -13.25,-2.25 -11.25,0 -20.5,5.25 -9.25,5.25 -15,14.75 l -21,-23.5 q 5.25,-7.75 14.25,-13.25 9,-5.5 21,-9 12,-3.5 25,-3.25 17,0 29.75,5.5 12.75,5.5 20.25,15.5 7.5,10 7.25,23.25 0,9.75 -4,18.5 -4,8.75 -11,14.5 -7,5.75 -16.75,7.75 z"/>
</svg>
