<svg xmlns="http://www.w3.org/2000/svg" fill="#0179a8" width="400" height="200" viewBox="0 0 400 200">
    <path d="m 141.625,155.25 q 0,-11.25 1.75,-20.25 1.75,-9 6,-16.75 4.25,-7.75 12,-14.5 7.75,-6.75 19.5,-13.5 10.25,-5.5 18,-9.5 7.75,-4 13,-7.75 5.25,-3.75 8.25,-7 3,-3.25 2.75,-8.5 0,-5 -2.75,-9 -2.75,-4 -7.75,-6.75 -5,-2.75 -12.5,-2.5 -6,0 -11,1.5 -5,1.5 -9.5,4.25 -4.5,2.75 -8.25,6 -3.75,3.25 -6.75,7.25 l -21.25,-24.5 q 3.5,-3.5 9.25,-7.5 5.75,-4 14,-7.75 8.25,-3.75 18,-6 9.75,-2.25 21.25,-2.5 17,0 29,5.25 12,5.25 18.25,15 6.25,9.75 6.5,22.25 0,8.75 -3.25,15.5 -3.25,6.75 -8.25,11.75 -5,5 -10.75,9.25 -5.75,4.25 -11.5,7 -7.75,4 -14,7.25 -6.25,3.25 -11,6.75 -4.75,3.5 -8.25,7 -3.5,3.5 -6.5,8 h 76.25 v 30.25 z"/>
    <path d="m 79.625,184.5 v -37.25 h -73 v -29.75 l 83.75,-107.5 h 22.75 V 117.25 h 22 v 30 h -22 v 37.25 z m -39.5,-67.25 h 43.25 V 60.75 Z"/>
    <path d="m 328.125,190 q -19.25,0 -34.75,-8.25 -15.5,-8.25 -23.5,-22.5 l 19.25,-20 q 7,9.75 17.5,15.5 10.5,5.75 21.75,5.75 9,0 15.75,-3.75 6.75,-3.75 11,-10.5 4.25,-6.75 4,-15.5 0,-8.75 -3.75,-15.25 -3.75,-6.5 -10.25,-10 -6.5,-3.5 -14.75,-3.75 -8.25,0 -15.25,3.5 -7,3.5 -11.5,10.5 h -29.25 l 20.5,-105.75 h 87.5 V 40.5 h -63.25 l -7.25,39.75 q 3.25,-3 9,-5 5.75,-2 14.25,-2.25 16.75,0 30,7.25 13.25,7.25 20.75,20 7.5,12.75 7.5,29.75 0,17.75 -8.5,31.25 -8.5,13.5 -23.25,21.25 -14.75,7.75 -33.5,7.5 z"/>
</svg>
